<svg id="Layer_1" data-name="Layer 1" xmlns="http://www.w3.org/2000/svg" viewBox="0 0 444.16 492.62"><defs><style>.cls-1{fill:#010101;}</style></defs><title>test</title><path class="cls-1" d="M541.53,539.55A210,210,0,0,1,555,565a181.65,181.65,0,0,1,13.29,48.89c4.68,37.5-1.83,72.92-19.17,106.4-1.18,2.29-1.07,3.53.78,5.38,14.42,14.45,14.32,36.38-.08,50.77-6.54,6.53-13.2,13-19.61,19.62-14.08,14.64-37.64,14.77-51.2.22-1.63-1.74-2.78-1.91-5-.76a184.72,184.72,0,0,1-55.29,18.5,173.53,173.53,0,0,1-41.3,1.91c-36.17-2.65-68.93-14.79-97.65-37.28q-51.52-40.35-65.69-104.2a166.1,166.1,0,0,1-4.21-37.6c.32-34.24,9.06-66.27,27.4-95.43,1.35-2.14,1.61-2.9-1.22-3.87-27.11-9.24-44.63-27.67-50.76-55.71-4.84-22.16.68-42.65,13.59-61,14.15-20.15,33.58-32.78,57.69-37.28,24.87-4.64,47.95.44,67.69,16.71a68.72,68.72,0,0,1,25,43.73,63.92,63.92,0,0,1,.94,15.56c-.16,1.71.28,1.7,1.86,1.36a173.43,173.43,0,0,1,45-4,165.35,165.35,0,0,1,34,4.78c2.39.63,2.21-.23,2.08-1.86-1.59-19.49,5-36.16,17.51-50.8,10.87-12.71,24.11-21.59,40.68-24.94,26.42-5.34,50.73-.15,72.53,15.6,17.75,12.82,29.57,29.95,33.93,51.61,4.58,22.78,0,43.63-14.52,62C572.53,526.91,558.37,535.1,541.53,539.55ZM305,658.13c-3.6-2.58-6.68-4.83-9.8-7-10.14-7.13-21.07-10.41-33.32-6.33-4.89,1.63-6.62,5-5.58,9.9,7.09,33.77,23.2,62,50.88,83.21,31.24,23.91,66.52,32.66,105.14,26.36,25.08-4.1,47.28-15.08,66.47-32,23.24-20.54,37.2-46.28,43.56-76.37,1.51-7.17-.5-10.14-7.62-11.86-10.7-2.58-20.41.06-29.37,6-3.84,2.55-7.56,5.29-11.65,8.16a15,15,0,0,1,0-2.1c3.29-16.66,6.22-33.35,7-50.39a107.89,107.89,0,0,0-3.47-33.55c-2.63-9.65-6.85-18.46-15.37-24.44-10.75-7.54-22.79-7.63-35.1-5.88-10.27,1.46-19.83,5.21-29.2,9.43a18.84,18.84,0,0,1-15.8.24c-11.55-4.8-23.31-9-35.85-10.46-14-1.69-29.41,2.46-37.8,16.27-6.85,11.27-8.81,23.79-9.1,36.6-.19,8.7-.49,17.42.54,26.15.83,7,1.75,14,2.87,20.91C303.35,646.47,304.11,652,305,658.13Z" transform="translate(-183.54 -381.92)"/><path class="cls-1" d="M627.7,845.9c-.3,12.19-6,21-17,26.12a27.19,27.19,0,0,1-30.61-5.42c-16.8-16.59-33.42-33.36-50.16-50-1.36-1.35-1.47-2.12,0-3.52q18.5-18.33,36.84-36.83c1.28-1.29,1.95-1.28,3.23,0,16.74,16.83,33.63,33.5,50.27,50.42A26,26,0,0,1,627.7,845.9Z" transform="translate(-183.54 -381.92)"/><path class="cls-1" d="M349.49,652.93c-4.34-.24-8.53-4.12-11.73-9.25-5-8-6.65-16.89-6-26.29.58-8,2.42-15.38,8.51-21.13,5.24-5,11.93-5.12,17.39-.4,7,6.09,10.12,14.18,11.78,23,2,10.88-2.59,20.08-7.62,29C359.72,651.68,356.12,653,349.49,652.93Z" transform="translate(-183.54 -381.92)"/><path class="cls-1" d="M406.93,622a38.74,38.74,0,0,1,7.86-22.55c6.95-9,18.64-10.75,24.95,2.11a82.35,82.35,0,0,1,6,18.65c1.78,8-7.2,26.28-14.28,30.63-6.73,4.14-14.06,2.2-18.94-5.12C408.34,639.45,406.87,632.37,406.93,622Z" transform="translate(-183.54 -381.92)"/><path class="cls-1" d="M389,654.4c6.49.63,12.92,1.06,19,3.64a21.61,21.61,0,0,1,7.68,5.15c4.39,4.74,3.69,10.13-1.84,13.48-6,3.64-12.92,4.85-19.51,6.94a17,17,0,0,1-11.11,0c-5.74-2-11.75-3.09-17.24-5.82-8.81-4.37-9.24-11.52-1-17.1C372.19,655.69,380.6,655.13,389,654.4Z" transform="translate(-183.54 -381.92)"/></svg>